<?xml version="1.0" standalone="no"?>
<!--Created with Sketsa SVG Editor (http://www.kiyut.com)-->
<svg baseProfile="full" contentScriptType="text/ecmascript" contentStyleType="text/css" height="514.57px" onload="init()" preserveAspectRatio="xMidYMid meet" version="1.0" width="680.0px" xmlns="http://www.w3.org/2000/svg" xmlns:slice="http://www.reprap.org/slice" xmlns:xlink="http://www.w3.org/1999/xlink" zoomAndPan="magnify">
	<metadata>
		<slice:layers id="sliceData" decimalPlacesCarried="2" javascriptControlBoxWidth="640" layerThickness="3.0" margin="20" maxX="33.38" maxY="35.38" maxZ="1.5" minX="-37.38" minY="-40.18" minZ="-1.5" noJavascriptControlBoxHeight="110" procedureDone="basic" template="svg_layer" textHeight="22.5" version="0.1" yAxisPointingUpward="true" />
	</metadata>
	<title >extrude.xml - Slice Layers</title>
	<!--Begin Layer Data   -->
	<g id="layerData" fill="#556B2F" font-family="Arial" font-size="15px" font-weight="bold" stroke="#00F" stroke-width="0.54px">
		<!--id="sliceElementTemplate" must be there or else the slice template will not be found-->
		<g id="z:0.0">
			<!--id="layerTextTemplate" must be there so that the text could be removed if necessary-->
			<path d="M 23.72 -0.84 L 24.7 -1.18 L 25.74 -0.79 L 26.19 0.21 L 25.93 1.21 L 2.18 26.86 L 1.01 27.32 L -0.99 27.39 L -2.19 27.02 L -28.86 2.18 L -29.32 1.01 L -29.39 -0.99 L -29.01 -2.19 L -2.18 -30.87 L -1.01 -31.32 L 0.99 -31.39 L 2.19 -31.01 L 32.87 -2.18 L 33.32 -1.01 L 33.38 0.99 L 33.01 2.19 L 2.19 34.88 L 1.01 35.32 L -0.99 35.38 L -2.19 35.0 L -36.88 2.19 L -37.33 1.01 L -37.38 -0.99 L -37.0 -2.19 L -1.27 -39.85 L -0.28 -40.18 L 0.75 -39.79 L 1.19 -38.78 L 0.92 -37.78 L -34.37 -0.58 L -34.34 0.44 L -0.59 32.37 L 0.44 32.34 L 30.37 0.59 L 30.34 -0.43 L 0.6 -28.37 L -0.43 -28.34 L -26.38 -0.6 L -26.34 0.42 L -0.61 24.38 L 0.41 24.34 z" />
		</g>
	</g>
	<!--End Layer Data-->
	<!--id="beginningOfControlSection" must be there or else the control box will be carved and so that the controls could be removed-->
	<!--id="noJavascriptControls" must be there so that the controls could be removed if necessary-->
</svg>
